<?xml version="1.0"?>
<mxfile host="embed.diagrams.net" modified="2020-07-30T14:55:47.331Z" agent="5.0 (X11; Linux x86_64) AppleWebKit/537.36 (KHTML, like Gecko) Chrome/84.0.4147.105 Safari/537.36" etag="Lordm6d1eg0hGVacFsx0" version="13.5.6" pages="2">
  <diagram id="nyHCKi9QWK8JL2qzV-X6" name="A">
    <mxGraphModel dx="2" dy="1" grid="1" gridSize="10" guides="1" tooltips="1" connect="1" arrows="1" fold="1" page="1" pageScale="1" pageWidth="1654" pageHeight="1169" math="0" shadow="0">
      <root>
        <mxCell id="hiGJrkWXkCQ1DxNBdZDH-0"/>
        <mxCell id="hiGJrkWXkCQ1DxNBdZDH-1" parent="hiGJrkWXkCQ1DxNBdZDH-0"/>
        <mxCell id="K8IqpQfXdq8tyYNDH0MG-72" value="We split the original street segment 3 at the junctions with the original street segments 1 and 2." style="text;html=1;strokeColor=none;fillColor=none;align=center;verticalAlign=middle;whiteSpace=wrap;rounded=0;fontColor=#000000;" parent="hiGJrkWXkCQ1DxNBdZDH-1" vertex="1">
          <mxGeometry x="319.99999999999994" y="300" width="530" height="20" as="geometry"/>
        </mxCell>
        <mxCell id="K8IqpQfXdq8tyYNDH0MG-73" style="edgeStyle=orthogonalEdgeStyle;rounded=0;orthogonalLoop=1;jettySize=auto;html=1;strokeColor=#D79B00;strokeWidth=3;entryX=0;entryY=0.5;entryDx=0;entryDy=0;" parent="hiGJrkWXkCQ1DxNBdZDH-1" source="K8IqpQfXdq8tyYNDH0MG-87" target="K8IqpQfXdq8tyYNDH0MG-76" edge="1">
          <mxGeometry relative="1" as="geometry">
            <mxPoint x="690" y="250" as="targetPoint"/>
          </mxGeometry>
        </mxCell>
        <mxCell id="K8IqpQfXdq8tyYNDH0MG-74" value="" style="ellipse;whiteSpace=wrap;html=1;aspect=fixed;fillColor=#f5f5f5;rotation=0;strokeColor=#666666;fontColor=#333333;" parent="hiGJrkWXkCQ1DxNBdZDH-1" vertex="1">
          <mxGeometry x="439.9999999999999" y="240" width="20.42" height="20.42" as="geometry"/>
        </mxCell>
        <mxCell id="K8IqpQfXdq8tyYNDH0MG-75" value="3" style="text;html=1;strokeColor=none;fillColor=none;align=center;verticalAlign=middle;whiteSpace=wrap;rounded=0;" parent="hiGJrkWXkCQ1DxNBdZDH-1" vertex="1">
          <mxGeometry x="610.5200000000001" y="220.00000000000009" width="40" height="20" as="geometry"/>
        </mxCell>
        <mxCell id="K8IqpQfXdq8tyYNDH0MG-76" value="" style="ellipse;whiteSpace=wrap;html=1;aspect=fixed;fillColor=#f5f5f5;strokeColor=#666666;rotation=0;fontColor=#333333;" parent="hiGJrkWXkCQ1DxNBdZDH-1" vertex="1">
          <mxGeometry x="800" y="240" width="20.42" height="20.42" as="geometry"/>
        </mxCell>
        <mxCell id="K8IqpQfXdq8tyYNDH0MG-77" value="" style="ellipse;whiteSpace=wrap;html=1;aspect=fixed;fillColor=#f5f5f5;strokeColor=#666666;rotation=0;fontColor=#333333;" parent="hiGJrkWXkCQ1DxNBdZDH-1" vertex="1">
          <mxGeometry x="569.6800000000001" y="150" width="20.42" height="20.42" as="geometry"/>
        </mxCell>
        <mxCell id="K8IqpQfXdq8tyYNDH0MG-78" value="" style="curved=1;html=1;strokeColor=#D79B00;fontColor=#000000;fontSize=11;rounded=0;strokeWidth=3;entryX=0.5;entryY=1;entryDx=0;entryDy=0;exitX=0.5;exitY=0;exitDx=0;exitDy=0;endArrow=none;endFill=0;" parent="hiGJrkWXkCQ1DxNBdZDH-1" source="K8IqpQfXdq8tyYNDH0MG-91" target="K8IqpQfXdq8tyYNDH0MG-77" edge="1">
          <mxGeometry width="50" height="50" relative="1" as="geometry">
            <mxPoint x="600" y="250" as="sourcePoint"/>
            <mxPoint x="630" y="190" as="targetPoint"/>
            <Array as="points"/>
          </mxGeometry>
        </mxCell>
        <mxCell id="K8IqpQfXdq8tyYNDH0MG-79" value="" style="ellipse;whiteSpace=wrap;html=1;aspect=fixed;fillColor=#f5f5f5;strokeColor=#666666;rotation=0;fontColor=#333333;" parent="hiGJrkWXkCQ1DxNBdZDH-1" vertex="1">
          <mxGeometry x="569.68" y="70" width="20.42" height="20.42" as="geometry"/>
        </mxCell>
        <mxCell id="K8IqpQfXdq8tyYNDH0MG-80" value="" style="curved=1;html=1;strokeColor=#D79B00;fontColor=#000000;fontSize=11;rounded=0;strokeWidth=3;entryX=0.5;entryY=1;entryDx=0;entryDy=0;exitX=0.5;exitY=0;exitDx=0;exitDy=0;" parent="hiGJrkWXkCQ1DxNBdZDH-1" source="K8IqpQfXdq8tyYNDH0MG-77" target="K8IqpQfXdq8tyYNDH0MG-79" edge="1">
          <mxGeometry width="50" height="50" relative="1" as="geometry">
            <mxPoint x="600" y="150" as="sourcePoint"/>
            <mxPoint x="600" y="100" as="targetPoint"/>
            <Array as="points"/>
          </mxGeometry>
        </mxCell>
        <mxCell id="K8IqpQfXdq8tyYNDH0MG-81" value="" style="curved=1;html=1;strokeColor=#D79B00;fontColor=#000000;fontSize=11;rounded=0;strokeWidth=3;entryX=0.5;entryY=0;entryDx=0;entryDy=0;" parent="hiGJrkWXkCQ1DxNBdZDH-1" source="K8IqpQfXdq8tyYNDH0MG-82" target="K8IqpQfXdq8tyYNDH0MG-89" edge="1">
          <mxGeometry width="50" height="50" relative="1" as="geometry">
            <mxPoint x="680.0000000000002" y="250" as="sourcePoint"/>
            <mxPoint x="740" y="170" as="targetPoint"/>
            <Array as="points"/>
          </mxGeometry>
        </mxCell>
        <mxCell id="K8IqpQfXdq8tyYNDH0MG-82" value="" style="ellipse;whiteSpace=wrap;html=1;aspect=fixed;fillColor=#f5f5f5;strokeColor=#666666;rotation=0;fontColor=#333333;" parent="hiGJrkWXkCQ1DxNBdZDH-1" vertex="1">
          <mxGeometry x="670.1" y="150" width="20.42" height="20.42" as="geometry"/>
        </mxCell>
        <mxCell id="K8IqpQfXdq8tyYNDH0MG-83" value="1" style="text;html=1;strokeColor=none;fillColor=none;align=center;verticalAlign=middle;whiteSpace=wrap;rounded=0;" parent="hiGJrkWXkCQ1DxNBdZDH-1" vertex="1">
          <mxGeometry x="580.3100000000002" y="150.00000000000014" width="40" height="20" as="geometry"/>
        </mxCell>
        <mxCell id="K8IqpQfXdq8tyYNDH0MG-84" value="2" style="text;html=1;strokeColor=none;fillColor=none;align=center;verticalAlign=middle;whiteSpace=wrap;rounded=0;" parent="hiGJrkWXkCQ1DxNBdZDH-1" vertex="1">
          <mxGeometry x="670.1000000000001" y="200.0000000000001" width="40" height="20" as="geometry"/>
        </mxCell>
        <mxCell id="K8IqpQfXdq8tyYNDH0MG-85" value="" style="ellipse;whiteSpace=wrap;html=1;aspect=fixed;fillColor=#f5f5f5;rotation=0;strokeColor=#666666;fontColor=#333333;" parent="hiGJrkWXkCQ1DxNBdZDH-1" vertex="1">
          <mxGeometry x="509.9999999999999" y="240" width="20.42" height="20.42" as="geometry"/>
        </mxCell>
        <mxCell id="K8IqpQfXdq8tyYNDH0MG-86" style="edgeStyle=orthogonalEdgeStyle;rounded=0;orthogonalLoop=1;jettySize=auto;html=1;strokeColor=#D79B00;strokeWidth=3;entryX=0;entryY=0.5;entryDx=0;entryDy=0;endArrow=none;endFill=0;" parent="hiGJrkWXkCQ1DxNBdZDH-1" source="K8IqpQfXdq8tyYNDH0MG-74" target="K8IqpQfXdq8tyYNDH0MG-85" edge="1">
          <mxGeometry relative="1" as="geometry">
            <mxPoint x="800.0000000000077" y="250.21000000000004" as="targetPoint"/>
            <mxPoint x="500.41999999999985" y="250.21000000000004" as="sourcePoint"/>
          </mxGeometry>
        </mxCell>
        <mxCell id="K8IqpQfXdq8tyYNDH0MG-87" value="" style="ellipse;whiteSpace=wrap;html=1;aspect=fixed;fillColor=#f5f5f5;rotation=0;strokeColor=#666666;fontColor=#333333;" parent="hiGJrkWXkCQ1DxNBdZDH-1" vertex="1">
          <mxGeometry x="729.9999999999999" y="240" width="20.42" height="20.42" as="geometry"/>
        </mxCell>
        <mxCell id="K8IqpQfXdq8tyYNDH0MG-88" style="edgeStyle=orthogonalEdgeStyle;rounded=0;orthogonalLoop=1;jettySize=auto;html=1;strokeColor=#D79B00;strokeWidth=3;entryX=0;entryY=0.5;entryDx=0;entryDy=0;endArrow=none;endFill=0;" parent="hiGJrkWXkCQ1DxNBdZDH-1" source="K8IqpQfXdq8tyYNDH0MG-89" target="K8IqpQfXdq8tyYNDH0MG-87" edge="1">
          <mxGeometry relative="1" as="geometry">
            <mxPoint x="800.0000000000077" y="250.21000000000004" as="targetPoint"/>
            <mxPoint x="560.4199999999998" y="250.21000000000004" as="sourcePoint"/>
          </mxGeometry>
        </mxCell>
        <mxCell id="K8IqpQfXdq8tyYNDH0MG-89" value="" style="ellipse;whiteSpace=wrap;html=1;aspect=fixed;fillColor=#f5f5f5;rotation=0;strokeColor=#666666;fontColor=#333333;" parent="hiGJrkWXkCQ1DxNBdZDH-1" vertex="1">
          <mxGeometry x="670.0999999999999" y="240" width="20.42" height="20.42" as="geometry"/>
        </mxCell>
        <mxCell id="K8IqpQfXdq8tyYNDH0MG-90" style="edgeStyle=orthogonalEdgeStyle;rounded=0;orthogonalLoop=1;jettySize=auto;html=1;strokeColor=#D79B00;strokeWidth=3;entryX=0;entryY=0.5;entryDx=0;entryDy=0;endArrow=none;endFill=0;" parent="hiGJrkWXkCQ1DxNBdZDH-1" source="K8IqpQfXdq8tyYNDH0MG-93" target="K8IqpQfXdq8tyYNDH0MG-89" edge="1">
          <mxGeometry relative="1" as="geometry">
            <mxPoint x="729.999999999995" y="250.21000000000004" as="targetPoint"/>
            <mxPoint x="560.4199999999998" y="250.21000000000004" as="sourcePoint"/>
          </mxGeometry>
        </mxCell>
        <mxCell id="K8IqpQfXdq8tyYNDH0MG-91" value="" style="ellipse;whiteSpace=wrap;html=1;aspect=fixed;fillColor=#f5f5f5;rotation=0;strokeColor=#666666;fontColor=#333333;" parent="hiGJrkWXkCQ1DxNBdZDH-1" vertex="1">
          <mxGeometry x="569.68" y="240" width="20.42" height="20.42" as="geometry"/>
        </mxCell>
        <mxCell id="K8IqpQfXdq8tyYNDH0MG-92" style="edgeStyle=orthogonalEdgeStyle;rounded=0;orthogonalLoop=1;jettySize=auto;html=1;strokeColor=#D79B00;strokeWidth=3;entryX=0;entryY=0.5;entryDx=0;entryDy=0;endArrow=none;endFill=0;" parent="hiGJrkWXkCQ1DxNBdZDH-1" source="K8IqpQfXdq8tyYNDH0MG-85" target="K8IqpQfXdq8tyYNDH0MG-91" edge="1">
          <mxGeometry relative="1" as="geometry">
            <mxPoint x="670.0999999999951" y="250.21000000000004" as="targetPoint"/>
            <mxPoint x="560.4199999999998" y="250.21000000000004" as="sourcePoint"/>
          </mxGeometry>
        </mxCell>
        <mxCell id="K8IqpQfXdq8tyYNDH0MG-93" value="" style="ellipse;whiteSpace=wrap;html=1;aspect=fixed;fillColor=#f5f5f5;rotation=0;strokeColor=#666666;fontColor=#333333;" parent="hiGJrkWXkCQ1DxNBdZDH-1" vertex="1">
          <mxGeometry x="620.31" y="240" width="20.42" height="20.42" as="geometry"/>
        </mxCell>
        <mxCell id="K8IqpQfXdq8tyYNDH0MG-94" style="edgeStyle=orthogonalEdgeStyle;rounded=0;orthogonalLoop=1;jettySize=auto;html=1;strokeColor=#D79B00;strokeWidth=3;entryX=0;entryY=0.5;entryDx=0;entryDy=0;endArrow=none;endFill=0;" parent="hiGJrkWXkCQ1DxNBdZDH-1" source="K8IqpQfXdq8tyYNDH0MG-91" target="K8IqpQfXdq8tyYNDH0MG-93" edge="1">
          <mxGeometry relative="1" as="geometry">
            <mxPoint x="670.0999999999951" y="250.21000000000004" as="targetPoint"/>
            <mxPoint x="610.5199999999998" y="250.21000000000004" as="sourcePoint"/>
          </mxGeometry>
        </mxCell>
        <mxCell id="K8IqpQfXdq8tyYNDH0MG-95" value="&lt;b&gt;Legend&lt;/b&gt;" style="text;html=1;strokeColor=none;align=center;verticalAlign=middle;whiteSpace=wrap;rounded=0;fillColor=#a8ca40;fontColor=#FFFFFF;" parent="hiGJrkWXkCQ1DxNBdZDH-1" vertex="1">
          <mxGeometry x="880.0000000000001" y="220" width="249.79" height="20" as="geometry"/>
        </mxCell>
        <mxCell id="K8IqpQfXdq8tyYNDH0MG-98" value="" style="curved=1;html=1;strokeColor=#D79B00;fontColor=#000000;fontSize=11;rounded=0;strokeWidth=3;" parent="hiGJrkWXkCQ1DxNBdZDH-1" edge="1">
          <mxGeometry width="50" height="50" relative="1" as="geometry">
            <mxPoint x="889.9999999999992" y="310" as="sourcePoint"/>
            <mxPoint x="970" y="310" as="targetPoint"/>
            <Array as="points"/>
          </mxGeometry>
        </mxCell>
        <mxCell id="K8IqpQfXdq8tyYNDH0MG-123" value="" style="ellipse;whiteSpace=wrap;html=1;aspect=fixed;rotation=0;fillColor=#f5f5f5;strokeColor=#666666;fontColor=#333333;" parent="hiGJrkWXkCQ1DxNBdZDH-1" vertex="1">
          <mxGeometry x="889.9999999999994" y="250" width="20.42" height="20.42" as="geometry"/>
        </mxCell>
        <mxCell id="K8IqpQfXdq8tyYNDH0MG-124" value="Street segment coordinate" style="text;html=1;strokeColor=none;fillColor=none;align=left;verticalAlign=middle;whiteSpace=wrap;rounded=0;" parent="hiGJrkWXkCQ1DxNBdZDH-1" vertex="1">
          <mxGeometry x="929.8399999999996" y="250.42000000000002" width="180" height="20" as="geometry"/>
        </mxCell>
        <mxCell id="K8IqpQfXdq8tyYNDH0MG-125" value="Original street segment" style="text;html=1;strokeColor=none;fillColor=none;align=left;verticalAlign=middle;whiteSpace=wrap;rounded=0;" parent="hiGJrkWXkCQ1DxNBdZDH-1" vertex="1">
          <mxGeometry x="980" y="300" width="239.42" height="20" as="geometry"/>
        </mxCell>
        <mxCell id="uLnBpKBbL4rqa6J9knvG-0" value="" style="endArrow=classic;html=1;exitX=0.5;exitY=1;exitDx=0;exitDy=0;entryX=0.577;entryY=-0.148;entryDx=0;entryDy=0;entryPerimeter=0;rounded=0;" parent="hiGJrkWXkCQ1DxNBdZDH-1" source="K8IqpQfXdq8tyYNDH0MG-91" target="K8IqpQfXdq8tyYNDH0MG-72" edge="1">
          <mxGeometry width="50" height="50" relative="1" as="geometry">
            <mxPoint x="640" y="280" as="sourcePoint"/>
            <mxPoint x="690" y="230" as="targetPoint"/>
            <Array as="points">
              <mxPoint x="580" y="280"/>
              <mxPoint x="626" y="280"/>
            </Array>
          </mxGeometry>
        </mxCell>
        <mxCell id="uLnBpKBbL4rqa6J9knvG-1" value="" style="endArrow=none;html=1;entryX=0.5;entryY=1;entryDx=0;entryDy=0;rounded=0;" parent="hiGJrkWXkCQ1DxNBdZDH-1" target="K8IqpQfXdq8tyYNDH0MG-89" edge="1">
          <mxGeometry width="50" height="50" relative="1" as="geometry">
            <mxPoint x="620" y="280" as="sourcePoint"/>
            <mxPoint x="690" y="230" as="targetPoint"/>
            <Array as="points">
              <mxPoint x="680" y="280"/>
            </Array>
          </mxGeometry>
        </mxCell>
      </root>
    </mxGraphModel>
  </diagram>
</mxfile>
